<svg xmlns="http://www.w3.org/2000/svg" viewBox="0 0 64 64">
  <defs>
    <linearGradient id="bg" x1="0" y1="0" x2="1" y2="1">
      <stop offset="0%" stop-color="#0A3D62"/>
      <stop offset="100%" stop-color="#1ABC9C"/>
    </linearGradient>
  </defs>
  <rect width="64" height="64" rx="14" fill="url(#bg)"/>
  <path d="M32 12c-5.5 0-9.5 2-11.5 4.5C18 19.5 17 23 17 26c0 4 1.5 7 3 10 1.5 3 3 6.5 3.5 10.5.5 3.5 1 5.5 3.5 5.5s3-2 3.5-4c.3-1.2.8-2.5 1.5-2.5s1.2 1.3 1.5 2.5c.5 2 1 4 3.5 4s3-2 3.5-5.5c.5-4 2-7.5 3.5-10.5 1.5-3 3-6 3-10 0-3-1-6.5-3.5-9.5C41.5 14 37.5 12 32 12z" fill="white" opacity="0.95"/>
  <path d="M27 24c0-1.5 1-3 5-3s5 1.5 5 3" stroke="white" stroke-width="0" fill="none"/>
  <ellipse cx="27" cy="26" rx="2.5" ry="3" fill="url(#bg)" opacity="0.15"/>
  <ellipse cx="37" cy="26" rx="2.5" ry="3" fill="url(#bg)" opacity="0.15"/>
</svg>
